#!OML:ASF I:\Actors\actors\Patient Classification 1\Patient 1\Session 1\Subject1.ASF
:FULLY-SPECIFIED
:DEGREES
1336
root 0.858177 17.4625 9.59485 11.6303 1.21812 -8.72306
lowerback -0.460074 2.53011 5.11478
upperback -7.60864 3.7711 2.52494
thorax -7.56749 1.63615 -0.426093
lowerneck -3.59438 3.38453 6.56193
upperneck -5.37974 4.54332 5.11942
head -1.04295 2.10439 0.508962
rclavicle 2.65502e-014 -2.40529e-014
rhumerus -32.9355 46.9648 -111.433
rradius 100.882
rwrist 25.6676
rhand -5.11596 -33.8315
rfingers 7.12502
rthumb 20.682 -782.75
lclavicle 2.65502e-014 -2.40529e-014
lhumerus -54.3102 -9.53443 102.584
lradius 115.766
lwrist 74.7841
lhand -23.6025 11.0451
lfingers 7.12502
lthumb 2.86128 41.0057
rfemur -3.58739 26.5408 24.3273
rtibia 0.990728
rfoot -15.5093 -31.7868
rtoes 6.29961
lfemur 4.08474 -48.8706 -11.0192
ltibia -4.66042
lfoot -24.4787 54.0258
ltoes 9.5993
1337
root 0.855534 17.4617 9.59029 11.649 1.24823 -8.74125
lowerback -0.276909 2.5217 4.95765
upperback -7.67962 3.77898 2.61833
thorax -7.76691 1.64866 -0.252048
lowerneck -3.46822 3.25313 6.25035
upperneck -6.10406 4.49024 6.22216
head -1.33028 2.03865 0.892535
rclavicle 2.48791e-014 -2.05991e-014
rhumerus -32.9529 46.9998 -111.324
rradius 100.916
rwrist 25.8759
rhand -4.85996 -33.9224
rfingers 7.12502
rthumb 20.928 -782.813
lclavicle 2.48791e-014 -2.05991e-014
lhumerus -54.2634 -9.47869 102.75
lradius 115.768
lwrist 74.849
lhand -23.8963 10.8605
lfingers 7.12502
lthumb 2.57751 40.8247
rfemur -3.64787 26.4979 24.3343
rtibia 1.01275
rfoot -15.4855 -31.7497
rtoes 6.2579
lfemur 4.09001 -49.1504 -11.0103
ltibia -4.63009
lfoot -24.8467 54.2115
ltoes 10.0342
1338
root 0.853413 17.461 9.58553 11.7075 1.25733 -8.79544
lowerback -0.20072 2.54271 4.77092
upperback -7.71805 3.81865 2.76931
thorax -7.87379 1.68434 0.00258254
lowerneck -3.50544 3.15366 5.78451
upperneck -6.66705 4.47278 7.41887
head -1.5503 1.99969 1.34493
rclavicle -2.2371e-014 5.89521e-015
rhumerus -32.9268 47.059 -111.101
rradius 100.924
rwrist 25.8368
rhand -5.13156 -34.0048
rfingers 7.12502
rthumb 20.667 -782.924
lclavicle -2.2371e-014 5.89521e-015
lhumerus -54.1574 -9.4133 102.977
lradius 115.727
lwrist 74.9116
lhand -24.0061 10.9211
lfingers 7.12502
lthumb 2.47147 40.8865
rfemur -3.79157 26.4078 24.3425
rtibia 1.06796
rfoot -15.4825 -31.6487
rtoes 6.14398
lfemur 3.94907 -49.2549 -10.8383
ltibia -4.59919
lfoot -24.9539 54.2929
ltoes 10.0661
1339
root 0.838668 17.4731 9.59502 11.2766 1.44103 -8.77602
lowerback 0.139564 2.48118 4.37646
upperback -7.58583 3.74971 2.9562
thorax -7.96542 1.68313 0.406705
lowerneck -3.69155 3.06364 5.3255
upperneck -6.9986 4.43932 8.5438
head -1.67122 1.96678 1.78717
rclavicle 1.52195e-015 4.87022e-015
rhumerus -32.8246 47.0544 -110.867
rradius 100.913
rwrist 25.7191
rhand -5.57845 -34.1389
rfingers 7.12502
rthumb 20.2375 -783.105
lclavicle 1.52195e-015 4.87022e-015
lhumerus -54.0541 -9.36034 103.217
lradius 115.629
lwrist 74.8648
lhand -23.9598 10.986
lfingers 7.12502
lthumb 2.51614 40.9509
rfemur -2.98081 26.9892 24.7536
rtibia 0.837497
rfoot -15.9305 -32.3358
rtoes 6.94512
lfemur 4.66999 -49.1614 -11.2838
ltibia -4.73072
lfoot -24.7002 54.0584
ltoes 9.75697
1340
root 0.83067 17.477 9.59933 11.1112 1.5144 -8.77383
lowerback 0.272427 2.4754 4.21336
upperback -7.54687 3.74684 3.02414
thorax -8.01475 1.69471 0.562789
lowerneck -3.76586 2.93214 5.06168
upperneck -7.26695 4.34589 9.49614
head -1.78064 1.90188 2.14754
rclavicle 4.97893e-015 1.963e-014
rhumerus -32.5831 46.7898 -110.649
rradius 100.879
rwrist 25.8126
rhand -5.59504 -34.1094
rfingers 7.12502
rthumb 20.2216 -783.077
lclavicle 4.97893e-015 1.963e-014
lhumerus -53.9913 -9.41334 103.349
lradius 115.542
lwrist 74.758
lhand -24.0788 10.8503
lfingers 7.12502
lthumb 2.40122 40.8165
rfemur -2.68366 27.1257 24.9198
rtibia 0.768473
rfoot -16.0548 -32.5067
rtoes 7.34605
lfemur 4.98638 -49.2477 -11.4928
ltibia -4.74716
lfoot -24.9199 54.0363
ltoes 10.0657
1341
root 0.825664 17.477 9.60199 11.0601 1.58359 -8.83198
lowerback 0.288275 2.4841 4.26421
upperback -7.56075 3.76207 3.01072
thorax -8.03518 1.69784 0.518663
lowerneck -3.78211 2.7771 4.78969
upperneck -7.45013 4.22686 10.5378
head -1.87473 1.82562 2.54598
rclavicle 4.14186e-015 -7.65321e-015
rhumerus -32.4251 46.4238 -110.589
rradius 100.8
rwrist 25.9601
rhand -5.46949 -33.8965
rfingers 7.12502
rthumb 20.3423 -782.851
lclavicle 4.14186e-015 -7.65321e-015
lhumerus -53.9691 -9.57156 103.333
lradius 115.477
lwrist 74.6231
lhand -24.2398 10.8244
lfingers 7.12502
lthumb 2.24581 40.7924
rfemur -2.62489 27.05 25.0428
rtibia 0.788515
rfoot -16.0251 -32.4654
rtoes 7.34453
lfemur 5.07445 -49.3582 -11.4757
ltibia -4.74059
lfoot -24.8733 54.1065
ltoes 10.0121
1342
root 0.822006 17.4762 9.60553 10.9927 1.67716 -8.87048
lowerback 0.283927 2.45926 4.27185
upperback -7.58871 3.73147 3.02432
thorax -8.06445 1.68215 0.530651
lowerneck -3.88288 2.66788 4.41957
upperneck -7.33882 4.13405 11.6267
head -1.861 1.78307 2.98572
rclavicle -3.88438e-014 -3.40916e-014
rhumerus -32.5431 46.2191 -110.744
rradius 100.721
rwrist 26.1363
rhand -5.35673 -33.6421
rfingers 7.12502
rthumb 20.4506 -782.585
lclavicle -3.88438e-014 -3.40916e-014
lhumerus -53.973 -9.62532 103.286
lradius 115.404
lwrist 74.5129
lhand -24.2499 10.9524
lfingers 7.12502
lthumb 2.236 40.9204
rfemur -2.52214 27.0559 25.1644
rtibia 0.797542
rfoot -16.1357 -32.4977
rtoes 7.47904
lfemur 5.05991 -49.1304 -11.3776
ltibia -4.75864
lfoot -24.3624 53.905
ltoes 9.31655
1343
root 0.820106 17.4747 9.61013 10.9414 1.73994 -8.81235
lowerback 0.229901 2.41099 4.13176
upperback -7.62089 3.66084 3.06097
thorax -8.07953 1.65806 0.653391
lowerneck -3.92526 2.57237 4.08545
upperneck -7.09653 4.03575 12.5603
head -1.8066 1.74559 3.37169
rclavicle -5.01248e-014 -9.93923e-017
rhumerus -32.7516 46.1602 -110.982
rradius 100.628
rwrist 26.3513
rhand -5.13744 -33.4083
rfingers 7.12502
rthumb 20.6614 -782.329
lclavicle -5.01248e-014 -9.93923e-017
lhumerus -53.9735 -9.56389 103.249
lradius 115.309
lwrist 74.5108
lhand -24.2112 10.9998
lfingers 7.12502
lthumb 2.2734 40.9674
rfemur -2.4238 27.008 25.1565
rtibia 0.786328
rfoot -16.2154 -32.5093
rtoes 7.49879
lfemur 5.10446 -48.9989 -11.461
ltibia -4.77084
lfoot -24.0865 53.7604
ltoes 8.88037
1344
root 0.818707 17.4729 9.61745 10.9102 1.78253 -8.75655
lowerback 0.0931756 2.40268 4.01068
upperback -7.64687 3.6382 3.08629
thorax -8.03663 1.65718 0.754088
lowerneck -3.86974 2.43351 3.75001
upperneck -6.82376 3.87677 13.4259
head -1.75203 1.67854 3.73942
rclavicle 9.36152e-015 -5.1684e-014
rhumerus -32.9391 46.0515 -111.15
rradius 100.525
rwrist 26.3677
rhand -5.3123 -33.2842
rfingers 7.12502
rthumb 20.4933 -782.223
lclavicle 9.36152e-015 -5.1684e-014
lhumerus -53.9697 -9.59814 103.265
lradius 115.222
lwrist 74.6001
lhand -24.2075 11.0449
lfingers 7.12502
lthumb 2.27692 41.0125
rfemur -2.34912 26.9209 25.1419
rtibia 0.788108
rfoot -16.2012 -32.5186
rtoes 7.18885
lfemur 5.25154 -49.0901 -11.6327
ltibia -4.79591
lfoot -24.149 53.7994
ltoes 8.97356
1345
root 0.816665 17.4712 9.62688 10.896 1.82559 -8.75434
lowerback -0.132374 2.4241 3.90834
upperback -7.68293 3.65248 3.12743
thorax -7.95271 1.67479 0.862317
lowerneck -3.89211 2.20844 3.50811
upperneck -6.25288 3.54471 14.2552
head -1.568 1.54623 4.0814
rclavicle -5.34234e-016 2.51463e-014
rhumerus -33.2427 45.8927 -111.328
rradius 100.482
rwrist 26.2453
rhand -5.91156 -33.3511
rfingers 7.12502
rthumb 19.9174 -782.35
lclavicle -5.34234e-016 2.51463e-014
lhumerus -54.0127 -9.72613 103.35
lradius 115.161
lwrist 74.7047
lhand -24.2368 11.1123
lfingers 7.12502
lthumb 2.24871 41.0802
rfemur -2.27719 26.9757 25.1942
rtibia 0.784014
rfoot -16.215 -32.6129
rtoes 7.02398
lfemur 5.33282 -49.0907 -11.6734
ltibia -4.83151
lfoot -24.0932 53.7903
ltoes 8.93262
1346
root 0.813278 17.4696 9.63927 10.8917 1.86463 -8.75915
lowerback -0.45408 2.40743 3.76215
upperback -7.74321 3.60872 3.16349
thorax -7.84165 1.66682 0.996991
lowerneck -3.90349 1.97884 3.37441
upperneck -5.43068 3.16108 15.1251
head -1.29375 1.40361 4.42108
rclavicle -1.02498e-014 -1.35174e-014
rhumerus -33.5826 45.7313 -111.626
rradius 100.456
rwrist 26.2078
rhand -6.25179 -33.4714
rfingers 7.12502
rthumb 19.5903 -782.504
lclavicle -1.02498e-014 -1.35174e-014
lhumerus -54.1027 -9.81445 103.345
lradius 115.084
lwrist 74.7767
lhand -24.2596 11.1413
lfingers 7.12502
lthumb 2.22663 41.1095
rfemur -2.17534 27.0967 25.2622
rtibia 0.734526
rfoot -16.2884 -32.7334
rtoes 7.20911
lfemur 5.39389 -49.0601 -11.6854
ltibia -4.85929
lfoot -24.0109 53.7515
ltoes 8.78122
1347
root 0.810626 17.4677 9.65501 10.8978 1.94706 -8.77386
lowerback -0.882983 2.3538 3.59488
upperback -7.81806 3.51052 3.21859
thorax -7.68668 1.6347 1.17045
lowerneck -3.48066 1.927 3.3838
upperneck -4.74595 3.04998 15.6903
head -1.14895 1.37131 4.62095
rclavicle 1.7931e-014 1.28713e-014
rhumerus -33.8824 45.5614 -111.891
rradius 100.385
rwrist 26.1987
rhand -6.30343 -33.4296
rfingers 7.12502
rthumb 19.5406 -782.468
lclavicle 1.7931e-014 1.28713e-014
lhumerus -54.1861 -9.86969 103.314
lradius 114.961
lwrist 74.8059
lhand -24.2317 11.1482
lfingers 7.12502
lthumb 2.25358 41.116
rfemur -2.05262 27.1543 25.3435
rtibia 0.653722
rfoot -16.4067 -32.8478
rtoes 7.54086
lfemur 5.4602 -49.1674 -11.7078
ltibia -4.84866
lfoot -24.0987 53.7674
ltoes 8.77102
1348
root 0.810593 17.4652 9.67038 10.9027 2.09223 -8.77957
lowerback -1.37635 2.29921 3.38898
upperback -7.8785 3.40923 3.31397
thorax -7.48325 1.60579 1.40956
lowerneck -3.62338 1.61336 3.3085
upperneck -3.38277 2.42673 16.3667
head -0.64196 1.15808 4.8855
rclavicle -7.93275e-015 -3.67752e-015
rhumerus -34.1673 45.4363 -112.005
rradius 100.282
rwrist 26.1114
rhand -6.48698 -33.3163
rfingers 7.12502
rthumb 19.3642 -782.372
lclavicle -7.93275e-015 -3.67752e-015
lhumerus -54.198 -9.97889 103.406
lradius 114.791
lwrist 74.8061
lhand -24.2499 11.1593
lfingers 7.12502
lthumb 2.23597 41.1273
rfemur -1.95043 27.0663 25.4004
rtibia 0.583618
rfoot -16.4265 -32.9215
rtoes 7.4341
lfemur 5.44929 -49.2588 -11.6957
ltibia -4.79452
lfoot -24.0405 53.7392
ltoes 8.5838
